<svg width="12" height="10" viewBox="0 0 12 10" fill="none" xmlns="http://www.w3.org/2000/svg">
<path d="M0.5 5C0.5 5 2.594 2 6 2C6.4735 2 6.9195 2.0605 7.339 2.161L4.18 5.32C4.06208 5.06268 4.0007 4.78306 4 4.5C4 4.0315 4.1675 3.6065 4.4375 3.2655C3.2415 3.6715 2.3305 4.458 1.8105 5C2.25347 5.46215 2.75428 5.86515 3.3005 6.199L2.574 6.9255C1.2485 6.065 0.5 5 0.5 5ZM11.5 5C11.5 5 9.406 8 6 8C5.527 8 5.082 7.938 4.662 7.8385L2.5 10L1.75 9.25L10.25 0.75L11 1.5L9.4265 3.0735C10.7505 3.9345 11.5 5 11.5 5ZM10.1925 5.003C9.74875 4.53957 9.24672 4.1357 8.699 3.8015L8 4.5C8 5.03043 7.78929 5.53914 7.41421 5.91421C7.03914 6.28929 6.53043 6.5 6 6.5L5.5265 6.9735C5.6815 6.989 5.8385 7 6 7C7.989 7 9.4715 5.761 10.1925 5.003Z" fill="white"/>
</svg>
