<svg width="18" height="18" viewBox="0 0 14 14" fill="none" xmlns="http://www.w3.org/2000/svg">
<path d="M3.19 1.75H1.75L8.5 8.5L9.25 7.795M12.97 12.34L12.34 12.97C12.2706 13.0395 12.1882 13.0947 12.0975 13.1323C12.0067 13.17 11.9095 13.1893 11.8113 13.1893C11.713 13.1893 11.6158 13.17 11.525 13.1323C11.4343 13.0947 11.3519 13.0395 11.2825 12.97L8.9425 10.63L6.9325 12.625L5.875 11.5675L6.94 10.5025L0.25 3.8125V0.25H3.8125L10.5025 6.94L11.5675 5.875L12.625 6.9325L10.6225 8.935L12.9625 11.275C13.2625 11.575 13.2625 12.0475 12.97 12.34Z" fill="white"/>
</svg>
