<svg width="12" height="6" viewBox="0 0 12 6" fill="none" xmlns="http://www.w3.org/2000/svg">
<path d="M6 0C2.594 0 0.5 3 0.5 3C0.5 3 2.594 6 6 6C9.406 6 11.5 3 11.5 3C11.5 3 9.406 0 6 0ZM6 5C4.0285 5 2.537 3.758 1.8105 3C2.3305 2.4575 3.2415 1.6715 4.4375 1.2655C4.15585 1.61546 4.00157 2.05079 4 2.5C4 3.03043 4.21071 3.53914 4.58579 3.91421C4.96086 4.28929 5.46957 4.5 6 4.5C6.53043 4.5 7.03914 4.28929 7.41421 3.91421C7.78929 3.53914 8 3.03043 8 2.5C7.99843 2.05079 7.84415 1.61546 7.5625 1.2655C8.759 1.6715 9.6705 2.458 10.1895 3C9.462 3.759 7.971 5 6 5Z" fill="white"/>
</svg>
