<svg width="12" height="13" viewBox="0 0 12 13" fill="none" xmlns="http://www.w3.org/2000/svg">
<path d="M0.146446 1.36735C-0.0488155 1.17209 -0.0488155 0.855503 0.146446 0.660241C0.341709 0.464978 0.658291 0.464978 0.853554 0.660241L6 5.80669L11.1464 0.660241C11.3417 0.464978 11.6583 0.464978 11.8536 0.660241C12.0488 0.855503 12.0488 1.17209 11.8536 1.36735L6.70711 6.51379L11.8536 11.6602C12.0488 11.8555 12.0488 12.1721 11.8536 12.3673C11.6583 12.5626 11.3417 12.5626 11.1464 12.3673L6 7.2209L0.853554 12.3673C0.658292 12.5626 0.341709 12.5626 0.146447 12.3673C-0.0488153 12.1721 -0.0488153 11.8555 0.146447 11.6602L5.29289 6.51379L0.146446 1.36735Z" fill="white"/>
</svg>
